<?xml version="1.0" encoding="utf-8"?>
<!-- Generator: Adobe Illustrator 23.0.3, SVG Export Plug-In . SVG Version: 6.00 Build 0)  -->
<svg version="1.1" id="Layer_1" xmlns="http://www.w3.org/2000/svg" xmlns:xlink="http://www.w3.org/1999/xlink" x="0px" y="0px"
	 viewBox="0 0 1920 1080" style="enable-background:new 0 0 1920 1080;" xml:space="preserve">
<style type="text/css">
	.st0{opacity:0.88;fill:#086972;enable-background:new    ;}
	.st1{opacity:0.44;fill:url(#SVGID_1_);enable-background:new    ;}
	.st2{fill:#086972;}
	.st3{opacity:0.58;fill:url(#SVGID_2_);enable-background:new    ;}
</style>
<path class="st0" d="M1243,330c35.7,49.7,69.7,66.5,98,70c51.8,6.5,71.9-18.7,137-29c77.1-12.1,169.7,9.7,234,58
	c58.6,44,68.8,87.3,123,100c33.7,7.9,65.5-6,85-17c0-170.7,0-341.3,0-512h-880c-30.9,61.5-26.7,93.7-15,112
	c23.9,37.5,84.9,24.8,101,63c12.2,28.9-16.7,50.3-9,82C1123.1,282.1,1151.5,310.4,1243,330z"/>
<linearGradient id="SVGID_1_" gradientUnits="userSpaceOnUse" x1="844.9979" y1="336.6707" x2="2141.646" y2="336.6707">
	<stop  offset="0.2183" style="stop-color:#00C90B;stop-opacity:0.58"/>
	<stop  offset="0.8673" style="stop-color:#17B978;stop-opacity:0.99"/>
</linearGradient>
<path class="st1" d="M1109,447c59.6,125.2,118.5,158,162,164c90.1,12.5,141.2-85.7,231-63c68.4,17.3,58.3,79.2,149,111
	c60.5,21.2,123.5,14,167.9,9.1c41.9-4.7,76.4-13.6,101.1-21.5c0-215.5,0-431.1,0-646.6H873.2c-36.7,77.6-31.7,118.4-17.8,141.4
	c27.2,45.3,87.8,28.6,120.1,79.6c27.7,43.7-3.7,79.4,18.5,133C1009.6,391.9,1045.7,423.9,1109,447z"/>
<path class="st2" d="M209,911c4.5-6.4,35.9-52.7,18-93c-9.9-22.3-31.6-31.8-75-51c-47.6-21-71.8-31.7-99-22
	c-31.9,11.4-47.3,43.6-53,58c0,92.3,0,184.7,0,277h385c5.2-4.3,29.5-25.3,33-61c2.5-25.3-6.9-44.5-11-52c-9-13.5-29.3-39.6-65-56
	C279.2,882.1,219.5,906.5,209,911z"/>
<linearGradient id="SVGID_2_" gradientUnits="userSpaceOnUse" x1="-1.1289" y1="677.5046" x2="960.88" y2="677.5046">
	<stop  offset="0.2183" style="stop-color:#00C90B;stop-opacity:0.58"/>
	<stop  offset="0.9364" style="stop-color:#17B978;stop-opacity:0.99"/>
</linearGradient>
<path class="st3" d="M242.3,887.8c5.2-7.3,41.6-59.9,20.9-105.7c-17.2-37.9-63.3-48.5-86.9-58C18.3,660.5,26.5,272.2,10.5,273
	C-4.7,273.8-1,622,0,765c0.9,132.7,0.5,241.9,0,315h446.3c400.9,3.1,514.6,2.1,514.6,0c0.1-3.9-380.6,11.5-489.1-128.5
	c-8.9-11.4-32.1-44.1-75.4-63.7C323.7,855,254.4,882.7,242.3,887.8z"/>
</svg>
